<?xml version="1.0" standalone="no"?>
<svg xmlns:xlink="http://www.w3.org/1999/xlink" id="wave" style="transform:rotate(180deg); transition: 0.3s" viewBox="0 0 1440 490" version="1.1" xmlns="http://www.w3.org/2000/svg"><defs><linearGradient id="sw-gradient-0" x1="0" x2="0" y1="1" y2="0"><stop stop-color="rgba(232.659, 64.077, 9.934, 1)" offset="0%"/><stop stop-color="rgba(255, 179, 11, 1)" offset="100%"/></linearGradient></defs><path style="transform:translate(0, 0px); opacity:1" fill="url(#sw-gradient-0)" d="M0,343L26.7,310.3C53.3,278,107,212,160,187.8C213.3,163,267,180,320,155.2C373.3,131,427,65,480,89.8C533.3,114,587,229,640,294C693.3,359,747,376,800,392C853.3,408,907,425,960,424.7C1013.3,425,1067,408,1120,408.3C1173.3,408,1227,425,1280,375.7C1333.3,327,1387,212,1440,171.5C1493.3,131,1547,163,1600,220.5C1653.3,278,1707,359,1760,367.5C1813.3,376,1867,310,1920,294C1973.3,278,2027,310,2080,269.5C2133.3,229,2187,114,2240,81.7C2293.3,49,2347,98,2400,138.8C2453.3,180,2507,212,2560,196C2613.3,180,2667,114,2720,89.8C2773.3,65,2827,82,2880,73.5C2933.3,65,2987,33,3040,65.3C3093.3,98,3147,196,3200,196C3253.3,196,3307,98,3360,98C3413.3,98,3467,196,3520,269.5C3573.3,343,3627,392,3680,400.2C3733.3,408,3787,376,3813,359.3L3840,343L3840,490L3813.3,490C3786.7,490,3733,490,3680,490C3626.7,490,3573,490,3520,490C3466.7,490,3413,490,3360,490C3306.7,490,3253,490,3200,490C3146.7,490,3093,490,3040,490C2986.7,490,2933,490,2880,490C2826.7,490,2773,490,2720,490C2666.7,490,2613,490,2560,490C2506.7,490,2453,490,2400,490C2346.7,490,2293,490,2240,490C2186.7,490,2133,490,2080,490C2026.7,490,1973,490,1920,490C1866.7,490,1813,490,1760,490C1706.7,490,1653,490,1600,490C1546.7,490,1493,490,1440,490C1386.7,490,1333,490,1280,490C1226.7,490,1173,490,1120,490C1066.7,490,1013,490,960,490C906.7,490,853,490,800,490C746.7,490,693,490,640,490C586.7,490,533,490,480,490C426.7,490,373,490,320,490C266.7,490,213,490,160,490C106.7,490,53,490,27,490L0,490Z"/><defs><linearGradient id="sw-gradient-1" x1="0" x2="0" y1="1" y2="0"><stop stop-color="rgba(230.382, 83.14, 35.85, 1)" offset="0%"/><stop stop-color="rgba(255, 179, 11, 1)" offset="100%"/></linearGradient></defs><path style="transform:translate(0, 50px); opacity:0.9" fill="url(#sw-gradient-1)" d="M0,196L26.7,236.8C53.3,278,107,359,160,375.7C213.3,392,267,343,320,310.3C373.3,278,427,261,480,212.3C533.3,163,587,82,640,49C693.3,16,747,33,800,106.2C853.3,180,907,310,960,310.3C1013.3,310,1067,180,1120,138.8C1173.3,98,1227,147,1280,138.8C1333.3,131,1387,65,1440,106.2C1493.3,147,1547,294,1600,326.7C1653.3,359,1707,278,1760,228.7C1813.3,180,1867,163,1920,187.8C1973.3,212,2027,278,2080,277.7C2133.3,278,2187,212,2240,187.8C2293.3,163,2347,180,2400,171.5C2453.3,163,2507,131,2560,163.3C2613.3,196,2667,294,2720,343C2773.3,392,2827,392,2880,367.5C2933.3,343,2987,294,3040,277.7C3093.3,261,3147,278,3200,253.2C3253.3,229,3307,163,3360,122.5C3413.3,82,3467,65,3520,98C3573.3,131,3627,212,3680,212.3C3733.3,212,3787,131,3813,89.8L3840,49L3840,490L3813.3,490C3786.7,490,3733,490,3680,490C3626.7,490,3573,490,3520,490C3466.7,490,3413,490,3360,490C3306.7,490,3253,490,3200,490C3146.7,490,3093,490,3040,490C2986.7,490,2933,490,2880,490C2826.7,490,2773,490,2720,490C2666.7,490,2613,490,2560,490C2506.7,490,2453,490,2400,490C2346.7,490,2293,490,2240,490C2186.7,490,2133,490,2080,490C2026.7,490,1973,490,1920,490C1866.7,490,1813,490,1760,490C1706.7,490,1653,490,1600,490C1546.7,490,1493,490,1440,490C1386.7,490,1333,490,1280,490C1226.7,490,1173,490,1120,490C1066.7,490,1013,490,960,490C906.7,490,853,490,800,490C746.7,490,693,490,640,490C586.7,490,533,490,480,490C426.7,490,373,490,320,490C266.7,490,213,490,160,490C106.7,490,53,490,27,490L0,490Z"/></svg>