<svg xmlns="http://www.w3.org/2000/svg" viewBox="0 0 1440 320"><path fill="#0099ff" fill-opacity="1" d="M0,64L34.3,101.3C68.6,139,137,213,206,234.7C274.3,256,343,224,411,208C480,192,549,192,617,213.3C685.7,235,754,277,823,293.3C891.4,309,960,299,1029,277.3C1097.1,256,1166,224,1234,208C1302.9,192,1371,192,1406,192L1440,192L1440,320L1405.7,320C1371.4,320,1303,320,1234,320C1165.7,320,1097,320,1029,320C960,320,891,320,823,320C754.3,320,686,320,617,320C548.6,320,480,320,411,320C342.9,320,274,320,206,320C137.1,320,69,320,34,320L0,320Z"></path></svg>